<svg width="800" height="1000" viewBox="0 0 800 1000" fill="none" xmlns="http://www.w3.org/2000/svg">
  <rect width="800" height="1000" fill="#EEEAE4"/>
  <circle cx="400" cy="155" r="78" fill="#D1C5B7"/>
  <path d="M282 247C282 214.968 307.968 189 340 189H460C492.032 189 518 214.968 518 247V405L570 816H230L282 405V247Z" fill="#6E7279"/>
  <path d="M340 221L307 421L231 815" stroke="#53565B" stroke-width="18"/>
  <path d="M460 221L493 421L569 815" stroke="#53565B" stroke-width="18"/>
  <path d="M342 244L399 384L455 244" stroke="#DBD6CF" stroke-width="20" stroke-linecap="round"/>
  <path d="M399 384V817" stroke="#44474D" stroke-width="18"/>
  <circle cx="399" cy="456" r="10" fill="#DBD6CF"/>
  <circle cx="399" cy="521" r="10" fill="#DBD6CF"/>
  <circle cx="399" cy="586" r="10" fill="#DBD6CF"/>
  <rect x="297" y="446" width="76" height="28" rx="14" fill="#53565B"/>
  <rect x="427" y="446" width="76" height="28" rx="14" fill="#53565B"/>
  <path d="M241 837H557" stroke="#3A3C40" stroke-width="22" stroke-linecap="round"/>
</svg>
